<?xml version="1.0" encoding="UTF-8" standalone="no"?>
<!DOCTYPE svg PUBLIC "-//W3C//DTD SVG 1.1//EN" "http://www.w3.org/Graphics/SVG/1.1/DTD/svg11.dtd">
<svg width="100%" height="100%" viewBox="0 0 300 98" version="1.1" xmlns="http://www.w3.org/2000/svg" xmlns:xlink="http://www.w3.org/1999/xlink" xml:space="preserve" xmlns:serif="http://www.serif.com/" style="fill-rule:evenodd;clip-rule:evenodd;stroke-linejoin:round;stroke-miterlimit:2;">
    <g id="Layer-1" serif:id="Layer 1" transform="matrix(4.16667,0,0,4.16667,0,0)">
        <g transform="matrix(0.128701,0,0,0.128701,5.1214,20.8852)">
            <path d="M0,-66.926C0,-66.926 -21.189,-58.139 -33.592,-39.018L-33.592,-30.232C-33.592,-30.232 -28.424,-22.998 -26.357,-22.479C-24.29,-21.964 -27.907,-18.863 -27.907,-18.863L-39.793,-11.112L-39.793,-5.426L-33.592,4.393L-25.839,4.393C-25.839,4.393 -24.03,2.843 -26.615,2.068L-30.75,0.001C-30.75,0.001 -31.524,-4.651 -31.266,-6.976C-31.266,-6.976 -21.835,-9.044 -19.897,-10.595C-17.959,-12.146 -17.959,-15.633 -17.959,-17.96C-17.959,-20.284 -12.533,-17.96 -12.145,-15.633C-12.145,-15.633 -14.471,-2.324 -13.695,4.393C-13.695,4.393 -7.106,6.846 -3.618,7.235L3.358,7.235C3.358,7.235 7.235,6.846 6.072,3.359C6.072,3.359 -4.006,1.808 -4.781,-1.293C-4.781,-1.293 -5.556,-4.393 -3.23,-8.656C-3.23,-8.656 -1.68,-18.346 -3.23,-22.998C-3.23,-22.998 -2.455,-27.002 -9.432,-29.844C-9.432,-29.844 -7.106,-37.727 1.421,-38.502C1.421,-38.502 4.956,-38.889 6.289,-33.463C6.289,-33.463 8.785,-22.222 17.313,-14.47C17.313,-14.47 24.29,-9.044 25.452,-5.944C25.452,-5.944 27.003,-1.293 21.188,-0.517C21.188,-0.517 19.251,4.522 23.514,7.235L29.716,7.235C29.716,7.235 32.816,5.297 32.816,0.646C32.816,0.646 33.204,-7.882 25.452,-16.797L24.677,-22.222C24.677,-22.222 29.334,-23.773 32.82,-17.183C32.82,-17.183 35.917,-11.369 40.181,-11.369C40.181,-11.369 43.669,-14.47 40.181,-18.735C40.181,-18.735 36.692,-26.227 27.778,-29.844C27.778,-29.844 20.801,-33.463 17.7,-40.052C17.7,-40.052 16.925,-52.068 17.313,-54.781C17.313,-54.781 23.901,-53.231 25.84,-55.169C25.84,-55.169 27.778,-68.735 16.15,-74.161C16.15,-74.161 10.723,-73.774 7.623,-74.161C7.623,-74.161 1.292,-72.48 0,-66.926Z" style="fill:white;fill-rule:nonzero;"/>
        </g>
        <g transform="matrix(0.128701,0,0,0.128701,16.5782,20.4694)">
            <path d="M0,-115.892C0,-115.892 -19.38,-111.628 -29.845,-77.907C-29.845,-77.907 -37.985,-68.605 -37.985,-64.729C-37.985,-64.729 -39.147,-57.752 -33.721,-53.876C-33.721,-53.876 -32.558,-41.085 -26.745,-32.946C-26.745,-32.946 -34.108,-21.704 -33.721,-11.239L-34.497,-5.038C-34.497,-5.038 -39.536,1.938 -39.923,4.265L-39.923,6.978L-19.961,6.978C-19.961,6.978 -13.178,6.202 -13.178,3.101C-13.178,3.101 -17.83,1.551 -19.961,1.551C-19.961,1.551 -24.032,-0.775 -24.807,-3.875C-24.807,-3.875 -24.419,-8.139 -23.643,-12.016C-23.643,-12.016 -17.442,-22.094 -15.117,-30.232C-15.117,-30.232 -13.178,-33.721 -12.016,-34.108C-12.016,-34.108 -10.465,-31.395 -10.465,-27.907C-10.465,-27.907 -12.791,-23.643 -12.791,-16.666C-12.791,-16.666 -12.403,-8.915 -9.69,-6.201C-9.69,-6.201 -12.016,5.427 -9.302,6.978C-9.302,6.978 3.876,8.14 12.791,6.978C12.791,6.978 17.055,5.427 12.791,4.651C12.791,4.651 5.039,5.427 1.938,-0.387C1.938,-0.387 0.388,-12.402 0.775,-27.131C0.775,-27.131 5.039,-31.395 4.651,-37.597C4.651,-37.597 4.651,-40.698 0.775,-48.062C0.775,-48.062 1.551,-62.79 -3.101,-70.93C-3.101,-70.93 -4.651,-74.419 0.775,-79.845C0.775,-79.845 8.527,-85.271 8.527,-96.899C8.527,-96.899 11.24,-101.551 24.031,-96.899C24.031,-96.899 28.682,-95.737 27.132,-105.814C27.132,-105.814 31.008,-119.38 16.279,-123.257C16.279,-123.257 3.488,-124.032 0,-115.892Z" style="fill:white;fill-rule:nonzero;"/>
        </g>
        <g transform="matrix(0.128701,0,0,0.128701,23.4124,19.8877)">
            <path d="M0,-111.372L-22.869,-86.178C-22.869,-86.178 -29.311,-83.078 -25.509,-76.875C-25.509,-76.875 -15.892,-65.248 -15.504,-60.984C-15.504,-60.984 -18.217,-53.232 -17.83,-50.131C-17.83,-50.131 -16.245,-48.581 -13.355,-47.806C-13.355,-47.806 -13.178,-34.24 -8.528,-30.364C-8.528,-30.364 -21.318,-19.123 -22.094,-9.821C-22.094,-9.821 -31.784,-2.455 -31.784,-0.131C-31.784,-0.131 -26.745,7.492 -20.543,12.014C-20.543,12.014 -18.863,12.144 -11.886,12.014C-11.886,12.014 -17.055,6.977 -17.83,1.55C-17.83,1.55 -19.38,-1.037 -15.892,-3.361L2.325,-21.706C2.325,-21.706 5.168,-24.549 3.618,-29.458C3.618,-29.458 6.202,-30.233 9.044,-25.712L9.044,13.954L31.783,14.986C31.783,14.986 34.367,13.177 30.491,12.014C30.491,12.014 21.189,11.11 17.571,5.166C17.571,5.166 22.739,-20.155 22.998,-23.774C22.998,-23.774 25.582,-28.942 19.122,-37.21L5.685,-55.814L5.685,-63.05C5.685,-63.05 9.561,-63.309 13.178,-61.5L24.806,-58.141C24.806,-58.141 24.549,-54.007 21.964,-47.03C21.964,-47.03 29.199,-55.039 31.008,-55.299L34.496,-56.721L34.496,-62.728L36.434,-63.503L36.434,-65.829L34.884,-66.41L34.496,-68.736L32.364,-68.93L31.202,-65.829L30.233,-64.279C30.233,-64.279 25.194,-64.86 20.155,-66.604C20.155,-66.604 8.14,-72.418 8.14,-77.844C8.14,-77.844 8.333,-85.015 12.597,-87.147L12.597,-100.519L21.899,-100.713C21.899,-100.713 25.324,-102.845 26.356,-107.496C26.356,-107.496 30.75,-108.014 27.648,-111.372L25.582,-112.664L25.324,-116.28C25.324,-116.28 21.964,-123.775 19.379,-125.067C16.796,-126.358 9.561,-126.358 7.752,-125.067C7.752,-125.067 1.033,-123.518 0,-111.372Z" style="fill:white;fill-rule:nonzero;"/>
        </g>
        <g transform="matrix(0.128701,0,0,0.128701,30.5458,18.0418)">
            <path d="M0,-106.72C0,-106.72 -8.527,-91.991 -8.527,-81.139C-8.527,-81.139 -8.656,-75.843 -4.263,-64.471C-4.263,-64.471 -3.747,-59.045 -4.263,-55.685C-4.263,-55.685 -6.848,-52.068 -6.589,-47.933C-6.589,-47.933 -7.105,-43.025 -1.679,-37.34L-2.196,-21.576C-2.196,-21.576 -11.24,-3.232 -11.24,0.904L-11.24,10.723C-11.24,10.723 -9.689,13.824 -9.689,15.892L-9.689,21.059C-9.689,22.093 -12.015,24.42 -11.24,26.356C-11.24,26.356 -10.724,29.068 -7.881,29.328L8.916,29.328C8.916,29.328 13.566,29.845 11.241,26.356C11.241,26.356 10.724,23.901 3.231,23.901C3.231,23.901 0.905,21.059 -1.42,20.284L-2.196,8.657C-2.196,8.657 -0.905,0.113 1.938,-4.53C1.938,-4.53 5.815,-10.982 7.881,-12.016C7.881,-12.016 10.208,-17.184 10.466,-20.542C10.466,-20.542 12.533,-22.093 13.049,-20.542C13.049,-20.542 15.634,-15.634 15.634,-12.274C15.634,-12.274 16.409,-11.501 15.634,-8.657C15.634,-8.657 14.6,-4.263 12.792,-1.421C12.792,-1.421 11.241,1.163 13.309,6.331C13.309,6.331 17.959,17.7 17.959,22.351L17.959,31.653C17.959,31.653 17.701,32.946 19.768,33.464L39.406,33.464C39.406,33.464 42.767,33.464 42.767,31.396C42.767,31.396 44.575,29.588 33.722,26.356C33.722,26.356 30.362,25.452 26.745,22.093C26.745,22.093 25.194,12.259 25.97,-4.53C25.97,-4.53 27.779,-8.657 27.262,-14.084C27.262,-14.084 26.958,-40.441 15.741,-54.652C15.741,-54.652 16.105,-65.765 15.741,-71.966C15.741,-71.966 18.476,-76.358 18.993,-78.943C18.993,-78.943 27.779,-79.718 31.138,-79.718C31.138,-79.718 32.689,-81.008 33.205,-82.559L36.306,-82.301L61.112,-63.954L63.18,-63.697L63.18,-66.279L39.407,-84.627C39.407,-84.627 41.989,-88.503 36.822,-89.021C36.822,-89.021 37.856,-90.571 36.306,-91.604C34.756,-92.636 27.262,-92.897 27.262,-92.897L15.892,-102.714L15.375,-104.414C15.375,-104.414 22.094,-104.007 22.094,-109.046L22.611,-113.309L25.891,-114.342C25.891,-114.342 24.419,-115.892 23.386,-117.442C22.353,-118.993 22.611,-120.286 22.611,-120.286L25.388,-120.868C25.388,-120.868 26.229,-130.621 15.375,-131.396C15.375,-131.396 -1.68,-135.273 -1.162,-115.117L-35.012,-140.184L-37.338,-140.184L-37.338,-137.598L-1.42,-109.951C-1.42,-109.951 -0.388,-109.951 0,-106.72Z" style="fill:white;fill-rule:nonzero;"/>
        </g>
        <g transform="matrix(0.128701,0,0,0.128701,51.7135,21.1845)">
            <path d="M0,-107.238C0,-107.238 -16.536,-105.426 -22.738,-96.9C-22.738,-96.9 -25.58,-91.216 -28.939,-77.779C-28.939,-77.779 -36.434,-67.702 -36.434,-64.083C-36.434,-64.083 -37.727,-57.107 -33.075,-50.905L-20.412,-32.557C-20.412,-32.557 -26.875,-29.716 -30.232,-25.581C-30.232,-25.581 -35.214,-19.897 -36.6,-14.471C-36.6,-14.471 -40.311,-8.528 -43.411,-8.011C-43.411,-8.011 -49.097,-6.976 -47.287,-1.55L-36.434,9.045L-26.873,9.045C-26.873,9.045 -25.582,7.235 -28.424,5.942C-28.424,5.942 -35.4,0.001 -35.4,-1.55C-35.4,-1.55 -34.366,-4.393 -33.075,-5.943C-33.075,-5.943 -10.853,-25.595 -8.526,-28.948C-8.526,-28.948 -6.977,-32.212 -7.751,-33.678C-7.751,-33.678 -6.199,-34.799 -5.684,-33.678C-5.684,-33.678 -3.101,-29.73 -2.841,-28.948C-2.841,-28.948 -10.594,-22.222 -10.594,-12.145C-10.594,-12.145 -10.335,-2.325 -10.335,2.326C-10.335,2.326 -13.178,6.978 -13.178,9.045C-13.178,9.045 -13.436,13.438 -10.335,13.953L12.403,13.953C12.403,13.953 11.889,9.045 8.27,9.045C8.27,9.045 1.034,5.944 -1.291,5.427L-2.066,0.777C-2.066,0.777 6.201,-20.672 7.752,-25.067C7.752,-25.067 11.628,-30.232 8.012,-36.434C8.012,-36.434 -11.112,-61.758 -12.403,-64.341C-12.403,-64.341 -13.178,-66.409 -9.818,-65.504C-9.818,-65.504 0.775,-52.974 0.775,-51.68C0.775,-51.68 1.81,-46.771 4.91,-46.642C4.91,-46.642 8.009,-46.511 8.527,-48.837C8.527,-48.837 9.818,-53.749 8.527,-54.524C8.527,-54.524 7.235,-55.814 6.46,-55.814C6.46,-55.814 -1.551,-64.341 -2.066,-66.667C-2.066,-66.667 -2.583,-68.401 -0.517,-67.922C-0.517,-67.922 3.361,-65.634 6.72,-65.504L10.853,-65.504C10.853,-65.504 10.078,-63.825 12.403,-63.05C12.403,-63.05 19.38,-60.906 19.38,-67.922C19.38,-67.922 18.347,-70.801 13.438,-71.318C13.438,-71.318 1.292,-73.903 -2.325,-73.644C-2.325,-73.644 -3.618,-75.712 -2.325,-78.812C-2.325,-78.812 3.876,-83.721 5.426,-88.372C5.426,-88.372 6.72,-94.573 5.686,-97.417C5.686,-97.417 10.079,-99.484 11.37,-98.45C11.37,-98.45 12.403,-96.124 14.988,-96.124L17.572,-96.642C17.572,-96.642 19.121,-98.71 19.38,-100.518L22.74,-101.551L22.74,-107.238L26.356,-107.238C26.356,-107.238 27.648,-113.439 23.256,-118.865C23.256,-118.865 20.674,-120.932 14.213,-121.191C14.213,-121.191 9.82,-120.932 7.494,-119.64C7.494,-119.64 0.775,-112.405 0,-107.238Z" style="fill:white;fill-rule:nonzero;"/>
        </g>
        <g transform="matrix(0.128701,0,0,0.128701,67.4106,23.5094)">
            <path d="M0,-90.699L0,-64.342L3.876,-64.342L3.876,-56.846L1.938,-56.846L1.938,-53.09L-4.652,-53.09L-5.686,-51.938L-5.686,-49.613L-4.652,-49.613L-4.652,-44.962L-20.155,-44.962L-20.155,-43.925L-22.999,-43.925L-22.999,-42.893L-24.549,-42.893L-24.549,-41.307L-25.582,-41.307L-13.696,-31.783L-14.214,0L-10.853,0L-10.853,-5.167L22.738,-5.167L22.738,0L26.098,0L26.098,-32.557L35.659,-39.792L35.659,-41.307L33.591,-41.307L33.85,-43.668L31.265,-43.668L31.008,-53.09L25.322,-53.09L25.063,-55.296L21.446,-55.296L21.446,-57.104L18.861,-57.104L18.861,-58.655L14.729,-58.655L14.47,-64.081L14.729,-65.632L20.155,-65.632L20.412,-67.699L26.356,-67.699L26.614,-77.778C26.614,-77.778 20.931,-90.699 0,-90.699Z" style="fill:white;fill-rule:nonzero;"/>
        </g>
        <g transform="matrix(0.0308883,0,0,0.0308883,-18.4284,29.5019)">
            <path d="M2575.53,-560.517C2575.53,-560.517 2520.61,-560.2 2507.69,-552.279C2507.69,-552.279 2462.47,-521.754 2460.86,-492.683L2460.86,-374.792C2460.86,-374.792 2452.79,-368.329 2439.86,-374.792C2439.86,-374.792 2425.87,-393.804 2425.87,-409.6C2425.87,-409.6 2437.72,-399.558 2445.25,-399.558L2450.63,-492.683C2450.63,-492.683 2438.8,-499.683 2437.71,-491.071C2437.71,-491.071 2428.02,-465.229 2418.34,-460.921C2418.34,-460.921 2410.8,-450.154 2406.49,-450.154L2402.18,-450.154L2402.18,-434.004L2409.72,-430.771L2411.88,-401.7C2411.88,-401.7 2416.18,-382.321 2423.71,-378.021L2422.65,-343.567L2449.56,-343.567C2449.56,-343.567 2449.56,-333.875 2463.56,-331.729L2464.64,-319.879L2450.63,-319.879L2449.56,-308.029L2462.47,-308.029L2466.78,-312.875L2475.4,-312.875L2476.48,-266.038L2476.48,-260.667L2402.18,-260.667L2402.18,-231.587C2402.18,-231.587 2391.42,-229.437 2391.42,-218.675C2391.42,-218.675 2392.5,-205.754 2406.49,-205.754C2406.49,-205.754 2423.71,-204.679 2423.71,-218.675C2423.71,-218.675 2425.87,-227.275 2416.18,-231.587L2415.11,-244.517L2483.47,-244.517C2483.47,-244.517 2491.54,-236.971 2491.54,-231.587C2491.54,-231.587 2480.78,-211.1 2498.01,-205.733C2498.01,-205.733 2516.31,-202.529 2515.23,-215.45C2515.23,-215.45 2516.31,-225.125 2506.62,-231.587L2501.24,-244.517L2550.77,-243.429L2552.91,-231.587L2565.84,-231.587L2567.99,-215.45L2580.91,-211.133L2580.91,-243.971C2580.91,-243.971 2591.68,-239.129 2591.68,-228.629C2591.68,-228.629 2585.22,-222.171 2586.03,-217.325L2586.83,-212.483C2586.83,-212.483 2588.45,-206.354 2598.14,-205.379C2598.14,-205.379 2611.87,-204.404 2612.67,-214.904C2612.67,-214.904 2613.48,-222.171 2604.6,-229.437C2604.6,-229.437 2602.98,-249.625 2603.79,-255.275C2603.79,-255.275 2607.02,-258.512 2609.44,-254.471C2609.44,-254.471 2626.4,-237.512 2636.09,-239.937C2636.09,-239.937 2639.32,-248.817 2636.09,-254.471C2636.09,-254.471 2602.17,-285.962 2597.33,-300.504C2597.33,-300.504 2597.33,-313.417 2602.17,-317.454L2661.93,-364.292C2661.93,-364.292 2686.16,-377.208 2671.62,-395.783C2671.62,-395.783 2653.04,-421.629 2653.04,-430.504C2653.04,-430.504 2657.89,-436.158 2667.58,-436.158C2667.58,-436.158 2683.74,-439.387 2691,-439.387C2691,-439.387 2698.26,-440.462 2711.19,-436.158C2711.19,-436.158 2716.58,-441.546 2725.18,-441.546C2725.18,-441.546 2735.95,-442.617 2746.71,-436.158C2746.71,-436.158 2744.56,-469.533 2727.34,-469.533C2727.34,-469.533 2717.65,-482.454 2707.96,-482.454C2707.96,-482.454 2626.14,-462 2615.36,-449.079C2615.36,-449.079 2611.06,-443.692 2605.68,-445.85C2605.68,-445.85 2602.44,-462 2602.44,-478.15C2602.44,-478.15 2613.21,-505.062 2613.21,-514.75C2613.21,-514.75 2641.21,-510.45 2662.74,-515.833L2662.74,-527.671L2674.57,-525.529L2674.57,-555.667C2674.57,-555.667 2697.18,-564.287 2681.04,-596.587C2681.04,-596.587 2670.26,-619.196 2639.05,-615.967C2639.05,-615.967 2606.75,-619.196 2591.68,-573.975C2591.68,-573.975 2585.23,-560.717 2575.53,-560.517ZM2494.78,-259.581L2536.77,-259.581C2536.77,-259.581 2532.47,-267.122 2528.16,-278.96C2528.16,-278.96 2574.45,-329.572 2586.3,-350.022C2586.3,-350.022 2585.22,-359.714 2576.6,-360.793C2576.6,-360.793 2562.6,-368.331 2564.76,-340.331L2506.62,-339.256L2502.32,-328.489L2501.24,-320.952L2494.78,-315.572L2494.78,-259.581Z" style="fill:white;"/>
        </g>
        <g transform="matrix(0.24,0,0,0.24,-15.5074,-3.3317)">
            <path d="M240.457,33.698C240.457,33.698 236.994,34.391 234.637,36.747C234.637,36.747 230.758,41.319 229.649,46.169C229.649,46.169 227.571,47.694 227.432,49.218C227.432,49.218 226.6,52.405 229.787,55.038L229.787,57.808C229.787,57.808 227.374,61.273 227.333,62.797C227.333,62.797 226.461,65.569 230.202,69.172C230.202,69.172 230.341,76.377 231.589,80.119L231.45,81.088C231.45,81.088 226.323,84.136 225.769,86.077C225.769,86.077 223.829,89.402 223.552,92.867C223.552,92.867 223.275,93.975 222.721,94.945C222.721,94.945 221.749,96.746 220.364,97.717L218.425,98.964C218.425,98.964 217.594,101.181 218.425,102.151C218.425,102.151 226.704,104.784 227.64,105.407L231.381,105.407C231.381,105.407 231.692,103.848 230.757,103.641C230.757,103.641 227.847,102.913 225.769,100.21C225.769,100.21 225.457,97.925 225.769,96.781C225.769,96.781 226.6,95.846 227.224,96.47C227.224,96.47 231.173,102.151 238.932,103.12L239.071,106.169L251.127,107.001C251.127,107.001 252.375,106.307 251.682,105.753C251.682,105.753 245.723,103.953 243.783,101.458C243.783,101.458 243.783,96.054 244.199,95.222C244.199,95.222 245.723,92.867 245.723,90.511L245.723,85.383C245.723,85.383 247.109,83.445 247.663,82.336C247.663,82.336 248.077,78.871 245.723,76.1L251.265,66.972L253.205,66.4L253.205,65.292L254.036,65.154L254.036,61.828L265.676,42.566L265.676,40.765L264.291,40.765L251.958,60.442L249.464,60.442C249.464,60.442 244.753,56.146 242.674,54.761L242.536,51.712C242.536,51.712 245.03,49.079 245.585,47.139C245.585,47.139 246.832,42.29 244.199,39.241C244.199,39.241 244.06,38.409 244.892,38.548C244.892,38.548 247.801,39.518 249.464,39.518C249.464,39.518 250.019,37.855 250.158,37.163C250.158,37.163 250.989,36.608 250.989,35.639L252.374,35.639L252.513,32.313L253.205,32.313L253.344,30.65C253.344,30.65 254.868,29.679 254.868,28.433C254.868,28.433 253.897,24.83 247.662,24.552C247.662,24.552 242.396,23.375 240.735,29.16L240.457,33.698ZM230.341,91.759C230.341,91.759 228.748,92.312 227.985,94.391C227.985,94.391 234.083,101.181 238.933,101.32L238.933,97.579C238.933,97.579 232.974,92.452 230.341,91.759ZM235.62,92.174L239.789,86.627L239.071,95.638C239.071,95.638 237.295,95.085 235.62,92.174ZM239.349,82.475L234.36,90.511C234.36,90.511 233.113,90.927 231.45,90.511L231.45,88.71C231.45,88.71 235.329,86.077 237.547,82.475C237.547,82.475 238.517,79.842 238.24,77.486C238.24,77.486 240.79,80.153 239.349,82.475ZM240.873,64.738C240.873,64.738 243.783,71.527 244.199,73.606L249.048,65.728L247.94,63.768C247.94,63.768 243.228,60.442 240.873,60.442L240.873,64.738Z" style="fill:white;"/>
        </g>
    </g>
</svg>
